<svg width="29" height="29" viewBox="0 0 29 29" fill="none" xmlns="http://www.w3.org/2000/svg">
<path d="M11.4697 4.44629L10.7617 4.53125C10.7617 4.53125 7.5863 4.87817 5.26758 6.74023H5.23926L5.21094 6.76855C4.69055 7.24646 4.46399 7.83411 4.10645 8.69434C3.7489 9.55457 3.36657 10.652 3.03027 11.8662C2.35766 14.2982 1.8125 17.2435 1.8125 19.9375V20.1641L1.92578 20.3906C2.76477 21.8633 4.25512 22.8014 5.63574 23.4492C7.01636 24.097 8.20935 24.4404 9.03418 24.4688L9.57227 24.4971L9.85547 24.0156L10.8467 22.2598C11.8981 22.4969 13.1088 22.6562 14.5 22.6562C15.8912 22.6562 17.1019 22.4969 18.1533 22.2598L19.1445 24.0156L19.4277 24.4971L19.9658 24.4688C20.7907 24.4404 21.9836 24.097 23.3643 23.4492C24.7449 22.8014 26.2352 21.8633 27.0742 20.3906L27.1875 20.1641V19.9375C27.1875 17.2435 26.6423 14.2982 25.9697 11.8662C25.6334 10.652 25.2511 9.55457 24.8936 8.69434C24.536 7.83411 24.3094 7.24646 23.7891 6.76855L23.7607 6.74023H23.7324C21.4137 4.87817 18.2383 4.53125 18.2383 4.53125L17.5303 4.44629L17.2754 5.09766C17.2754 5.09766 17.0134 5.75964 16.8506 6.51367C15.824 6.37561 14.985 6.34375 14.5 6.34375C14.015 6.34375 13.176 6.37561 12.1494 6.51367C11.9866 5.75964 11.7246 5.09766 11.7246 5.09766L11.4697 4.44629ZM10.2236 6.51367C10.2626 6.64112 10.3015 6.75086 10.3369 6.85352C9.16516 7.1438 7.91553 7.5863 6.76855 8.29785L7.73145 9.82715C10.082 8.36866 13.4592 8.15625 14.5 8.15625C15.5408 8.15625 18.918 8.36866 21.2686 9.82715L22.2314 8.29785C21.0845 7.5863 19.8348 7.1438 18.6631 6.85352C18.6985 6.75086 18.7374 6.64112 18.7764 6.51367C19.6224 6.68359 21.2367 7.073 22.5713 8.12793C22.5642 8.13147 22.9111 8.65539 23.2227 9.40234C23.5413 10.1705 23.8953 11.1936 24.2139 12.3477C24.8263 14.5602 25.3077 17.2541 25.3467 19.626C24.7767 20.4968 23.7183 21.2827 22.5996 21.8066C21.6226 22.2633 20.8508 22.4297 20.3906 22.5146L19.9375 21.75C20.2065 21.6509 20.472 21.5411 20.7021 21.4385C22.0969 20.8261 22.8545 20.1641 22.8545 20.1641L21.665 18.8047C21.665 18.8047 21.1553 19.272 19.9658 19.7959C18.7764 20.3198 16.9603 20.8438 14.5 20.8438C12.0397 20.8438 10.2236 20.3198 9.03418 19.7959C7.84473 19.272 7.33496 18.8047 7.33496 18.8047L6.14551 20.1641C6.14551 20.1641 6.90308 20.8261 8.29785 21.4385C8.52796 21.5411 8.79346 21.6509 9.0625 21.75L8.60938 22.5146C8.14917 22.4297 7.37745 22.2633 6.40039 21.8066C5.28174 21.2827 4.22327 20.4968 3.65332 19.626C3.69226 17.2541 4.17371 14.5602 4.78613 12.3477C5.10473 11.1936 5.45874 10.1705 5.77734 9.40234C6.08887 8.65539 6.43579 8.13147 6.42871 8.12793C7.76331 7.073 9.37757 6.68359 10.2236 6.51367ZM11.3281 12.6875C10.6272 12.6875 10.0077 13.0875 9.62891 13.5938C9.25012 14.1 9.0625 14.723 9.0625 15.4062C9.0625 16.0895 9.25012 16.7125 9.62891 17.2188C10.0077 17.725 10.6272 18.125 11.3281 18.125C12.0291 18.125 12.6486 17.725 13.0273 17.2188C13.4061 16.7125 13.5938 16.0895 13.5938 15.4062C13.5938 14.723 13.4061 14.1 13.0273 13.5938C12.6486 13.0875 12.0291 12.6875 11.3281 12.6875ZM17.6719 12.6875C16.9709 12.6875 16.3514 13.0875 15.9727 13.5938C15.5939 14.1 15.4062 14.723 15.4062 15.4062C15.4062 16.0895 15.5939 16.7125 15.9727 17.2188C16.3514 17.725 16.9709 18.125 17.6719 18.125C18.3728 18.125 18.9923 17.725 19.3711 17.2188C19.7499 16.7125 19.9375 16.0895 19.9375 15.4062C19.9375 14.723 19.7499 14.1 19.3711 13.5938C18.9923 13.0875 18.3728 12.6875 17.6719 12.6875ZM11.3281 14.5C11.3777 14.5 11.4414 14.5177 11.5547 14.6699C11.668 14.8221 11.7812 15.0876 11.7812 15.4062C11.7812 15.7249 11.668 15.9904 11.5547 16.1426C11.4414 16.2948 11.3777 16.3125 11.3281 16.3125C11.2786 16.3125 11.2148 16.2948 11.1016 16.1426C10.9883 15.9904 10.875 15.7249 10.875 15.4062C10.875 15.0876 10.9883 14.8221 11.1016 14.6699C11.2148 14.5177 11.2786 14.5 11.3281 14.5ZM17.6719 14.5C17.7214 14.5 17.7852 14.5177 17.8984 14.6699C18.0117 14.8221 18.125 15.0876 18.125 15.4062C18.125 15.7249 18.0117 15.9904 17.8984 16.1426C17.7852 16.2948 17.7214 16.3125 17.6719 16.3125C17.6223 16.3125 17.5586 16.2948 17.4453 16.1426C17.332 15.9904 17.2188 15.7249 17.2188 15.4062C17.2188 15.0876 17.332 14.8221 17.4453 14.6699C17.5586 14.5177 17.6223 14.5 17.6719 14.5Z" fill="white"/>
</svg>
