<svg width="29" height="29" viewBox="0 0 29 29" fill="none" xmlns="http://www.w3.org/2000/svg">
<path d="M26.5834 4.83215C25.6409 5.39161 23.7499 6.15407 22.6382 6.37399C22.6056 6.38245 22.579 6.39332 22.5476 6.40178C21.5652 5.43269 20.2191 4.83215 18.7293 4.83215C15.7265 4.83215 13.2918 7.26695 13.2918 10.2697C13.2918 10.4279 13.2785 10.7192 13.2918 10.8738C9.24021 10.8738 6.15654 8.75199 3.94529 6.04049C3.70483 6.64465 3.59971 7.59924 3.59971 8.49582C3.59971 10.1887 4.92283 11.8514 6.98304 12.8821C6.60362 12.9799 6.18554 13.05 5.75054 13.05C5.0485 13.05 4.30537 12.8652 3.62508 12.3045C3.62508 12.325 3.62508 12.3444 3.62508 12.3661C3.62508 14.732 6.136 16.3427 8.369 16.791C7.91587 17.0581 7.00237 17.0847 6.5565 17.0847C6.24233 17.0847 5.13067 16.9409 4.83342 16.8853C5.4545 18.8247 7.69475 19.9146 9.82988 19.9532C8.15996 21.2631 7.00117 21.7488 3.58158 21.7488H2.41675C4.57725 23.1336 7.32862 24.1667 10.086 24.1667C19.064 24.1667 24.1668 17.3239 24.1668 10.8738C24.1668 10.7699 24.1643 10.5524 24.1607 10.3337C24.1607 10.3119 24.1668 10.2914 24.1668 10.2697C24.1668 10.237 24.1571 10.2056 24.1571 10.173C24.1535 10.0087 24.1498 9.8552 24.1462 9.77545C25.1008 9.0867 25.9285 8.22757 26.5834 7.24882C25.7074 7.6379 24.7673 7.8989 23.7801 8.01732C24.7878 7.41315 26.2197 5.97282 26.5834 4.83215Z" fill="white"/>
</svg>
