<svg width="26" height="26" viewBox="0 0 26 26" fill="none" xmlns="http://www.w3.org/2000/svg">
<path d="M16.6279 26H9.37209C2.80558 26 0 23.1944 0 16.6279V9.37209C0 2.80558 2.80558 0 9.37209 0H16.6279C23.1944 0 26 2.80558 26 9.37209V16.6279C26 23.1944 23.1944 26 16.6279 26ZM9.37209 1.81395C3.79721 1.81395 1.81395 3.79721 1.81395 9.37209V16.6279C1.81395 22.2028 3.79721 24.186 9.37209 24.186H16.6279C22.2028 24.186 24.186 22.2028 24.186 16.6279V9.37209C24.186 3.79721 22.2028 1.81395 16.6279 1.81395H9.37209Z" fill="white"/>
<path d="M12.9999 18.1395C10.1701 18.1395 7.86035 15.8298 7.86035 13C7.86035 10.1702 10.1701 7.86047 12.9999 7.86047C15.8297 7.86047 18.1394 10.1702 18.1394 13C18.1394 15.8298 15.8297 18.1395 12.9999 18.1395ZM12.9999 9.67443C11.1617 9.67443 9.67431 11.1619 9.67431 13C9.67431 14.8381 11.1617 16.3256 12.9999 16.3256C14.838 16.3256 16.3255 14.8381 16.3255 13C16.3255 11.1619 14.838 9.67443 12.9999 9.67443Z" fill="white"/>
<path d="M19.0465 7.55804C18.8893 7.55804 18.732 7.52176 18.5869 7.46129C18.4418 7.40083 18.3088 7.31618 18.1879 7.20734C18.079 7.08641 17.9823 6.95339 17.9218 6.80827C17.8613 6.66315 17.8372 6.50594 17.8372 6.34873C17.8372 6.19152 17.8613 6.03432 17.9218 5.8892C17.9944 5.73199 18.079 5.61106 18.1879 5.49013C18.2483 5.44176 18.3088 5.38129 18.3693 5.34501C18.4418 5.29664 18.5144 5.26036 18.5869 5.23618C18.6595 5.1999 18.732 5.17571 18.8167 5.16362C19.2037 5.07897 19.6148 5.21199 19.9051 5.49013C20.0139 5.61106 20.0986 5.73199 20.159 5.8892C20.2195 6.03432 20.2558 6.19152 20.2558 6.34873C20.2558 6.50594 20.2195 6.66315 20.159 6.80827C20.0986 6.95339 20.0139 7.08641 19.9051 7.20734C19.7841 7.31618 19.6511 7.40083 19.506 7.46129C19.3609 7.52176 19.2037 7.55804 19.0465 7.55804Z" fill="white"/>
</svg>
